<?xml version="1.0" encoding="utf-8"?>
<!-- Generator: Adobe Illustrator 24.3.0, SVG Export Plug-In . SVG Version: 6.00 Build 0)  -->
<svg version="1.1" id="Layer_1" xmlns="http://www.w3.org/2000/svg" xmlns:xlink="http://www.w3.org/1999/xlink" x="0px" y="0px"
	 viewBox="0 0 105.1 105.8" style="enable-background:new 0 0 105.1 105.8;" xml:space="preserve">
<style type="text/css">
	.st0{fill:url(#SVGID_1_);}
	.st1{fill:url(#SVGID_2_);}
	.st2{fill:url(#SVGID_3_);}
</style>
<g>
	
		<linearGradient id="SVGID_1_" gradientUnits="userSpaceOnUse" x1="3.5" y1="54.3756" x2="101.5303" y2="54.3756" gradientTransform="matrix(1 0 0 -1 0 107.2756)">
		<stop  offset="0" style="stop-color:#47D5CD"/>
		<stop  offset="0.2713" style="stop-color:#44D2CB"/>
		<stop  offset="0.4891" style="stop-color:#3AC8C3"/>
		<stop  offset="0.6884" style="stop-color:#2AB7B6"/>
		<stop  offset="0.8755" style="stop-color:#139FA4"/>
		<stop  offset="1" style="stop-color:#008B95"/>
	</linearGradient>
	<path class="st0" d="M81.6,62L81.6,62L81.6,62c-21.1,0-38.1-17.2-38.1-38.4l0,0l0,0c0-11.1-8.9-20.1-20-20.1c-11,0-20,9-20,20.1
		s8.9,20.1,20,20.1c0,0,0,0,0.1,0c21,0,38,17.2,38.1,38.4c0,0,0,0,0,0.1c0,11.1,8.9,20.1,20,20.1c11,0,20-9,20-20.1
		C101.5,71,92.6,62,81.6,62z"/>
	
		<linearGradient id="SVGID_2_" gradientUnits="userSpaceOnUse" x1="3.5" y1="25.1756" x2="43.4292" y2="25.1756" gradientTransform="matrix(1 0 0 -1 0 107.2756)">
		<stop  offset="0" style="stop-color:#47D5CD"/>
		<stop  offset="0.2713" style="stop-color:#44D2CB"/>
		<stop  offset="0.4891" style="stop-color:#3AC8C3"/>
		<stop  offset="0.6884" style="stop-color:#2AB7B6"/>
		<stop  offset="0.8755" style="stop-color:#139FA4"/>
		<stop  offset="1" style="stop-color:#008B95"/>
	</linearGradient>
	<path class="st1" d="M23.5,62c-11,0-20,9-20,20.1s8.9,20.1,20,20.1c11,0,20-9,20-20.1C43.4,71,34.5,62,23.5,62z"/>
	
		<linearGradient id="SVGID_3_" gradientUnits="userSpaceOnUse" x1="61.6" y1="83.6756" x2="101.5293" y2="83.6756" gradientTransform="matrix(1 0 0 -1 0 107.2756)">
		<stop  offset="0" style="stop-color:#47D5CD"/>
		<stop  offset="0.2713" style="stop-color:#44D2CB"/>
		<stop  offset="0.4891" style="stop-color:#3AC8C3"/>
		<stop  offset="0.6884" style="stop-color:#2AB7B6"/>
		<stop  offset="0.8755" style="stop-color:#139FA4"/>
		<stop  offset="1" style="stop-color:#008B95"/>
	</linearGradient>
	<ellipse class="st2" cx="81.6" cy="23.6" rx="20" ry="20.1"/>
</g>
</svg>
