<?xml version="1.0" encoding="utf-8"?>
<!-- Generator: Adobe Illustrator 24.3.0, SVG Export Plug-In . SVG Version: 6.00 Build 0)  -->
<svg version="1.1" id="Layer_1" xmlns="http://www.w3.org/2000/svg" xmlns:xlink="http://www.w3.org/1999/xlink" x="0px" y="0px"
	 viewBox="0 0 105.1 105.8" style="enable-background:new 0 0 105.1 105.8;" xml:space="preserve">
<style type="text/css">
	.st0{fill:#FFFFFF;}
	.st1{fill:#47D5CD;}
</style>
<circle class="st0" cx="52.5" cy="52.9" r="51.9"/>
<g>
	<path class="st1" d="M68.3,57.8L68.3,57.8L68.3,57.8c-11.4,0-20.7-9.3-20.7-20.8l0,0l0,0c0-6-4.8-10.9-10.8-10.9S26,31,26,37
		s4.8,10.9,10.8,10.9l0,0c11.4,0,20.6,9.3,20.6,20.8l0,0c0,6,4.8,10.9,10.8,10.9S79,74.7,79,68.7C79.1,62.7,74.2,57.8,68.3,57.8z"/>
	<path class="st1" d="M36.8,57.8c-6,0-10.8,4.9-10.8,10.9s4.8,10.9,10.8,10.9s10.8-4.9,10.8-10.9S42.8,57.8,36.8,57.8z"/>
	<ellipse class="st1" cx="68.3" cy="37" rx="10.8" ry="10.9"/>
</g>
</svg>
