<?xml version="1.0" encoding="utf-8"?>
<!-- Generator: Adobe Illustrator 24.3.0, SVG Export Plug-In . SVG Version: 6.00 Build 0)  -->
<svg version="1.1" id="Layer_1" xmlns="http://www.w3.org/2000/svg" xmlns:xlink="http://www.w3.org/1999/xlink" x="0px" y="0px"
	 viewBox="0 0 106.5 104.5" style="enable-background:new 0 0 106.5 104.5;" xml:space="preserve">
<style type="text/css">
	.st0{fill:#47D5CD;}
</style>
<g>
	<path class="st0" d="M83.4,44.6c12.3,0,22.3-9.8,22.3-21.9S95.7,0.8,83.4,0.8s-22.3,9.8-22.3,21.9C61.1,34.8,71,44.6,83.4,44.6z"/>
	<ellipse class="st0" cx="23.1" cy="81.8" rx="22.3" ry="21.9"/>
	<path class="st0" d="M83.4,59.9c-20,0-38-15.8-38-37.2c0-12.1-10-21.9-22.3-21.9S0.8,10.6,0.8,22.7S11,44.6,23.1,44.6
		c22.5,0,38,18,38,37.2c0,12.2,10,21.9,22.3,21.9s22.3-9.8,22.3-21.9S95.9,59.9,83.4,59.9z"/>
</g>
</svg>
