<?xml version="1.0" encoding="utf-8"?>
<!-- Generator: Adobe Illustrator 24.3.0, SVG Export Plug-In . SVG Version: 6.00 Build 0)  -->
<svg version="1.1" id="Layer_1" xmlns="http://www.w3.org/2000/svg" xmlns:xlink="http://www.w3.org/1999/xlink" x="0px" y="0px"
	 viewBox="0 0 350.4 102.4" style="enable-background:new 0 0 350.4 102.4;" xml:space="preserve">
<style type="text/css">
	.st0{fill:#FFFFFF;}
</style>
<g>
	<path class="st0" d="M80.2,60.4L80.2,60.4L80.2,60.4C59.1,60.4,42,43.2,42,22l0,0c0,0,0,0,0,0c0-11.1-8.9-20.1-20-20.1
		c-11,0-20,9-20,20.1s8.9,20.1,20,20.1c0,0,0,0,0.1,0c21,0,38,17.2,38.1,38.4c0,0,0,0,0,0.1c0,11.1,8.9,20.1,20,20.1s20-9,20-20.1
		C100.1,69.4,91.2,60.4,80.2,60.4z"/>
	<path class="st0" d="M22.1,60.4c-11,0-20,9-20,20.1c0,11.1,8.9,20.1,20,20.1s20-9,20-20.1C42,69.4,33.1,60.4,22.1,60.4z"/>
	<ellipse class="st0" cx="80.2" cy="22" rx="20" ry="20.1"/>
	<path class="st0" d="M161.4,43.3l-5.2-1.8c-3.2-1.1-8.6-2.9-8.6-8.5c0-4.8,3.8-7.8,9.6-7.8c6.3,0,10.5,3.9,11.3,10.5l0.1,0.4h3.7
		V25.4l-0.3-0.1c-4.7-2.7-9.9-4.1-14.9-4.1c-7.8,0-16.1,3.6-16.1,13.6c0,9.7,7.8,12.3,12.9,14.1l4.8,1.6c3.6,1.2,9.1,3,9.1,9.1
		c0,5.1-3.8,8.1-10.3,8.1c-7.4,0-11.5-4.4-12-12.7l0-0.5h-3.8v12.1l0.2,0.2c4.3,3.4,9.9,5.3,15.8,5.3c10.3,0,17-5.6,17-14.4
		C174.8,48.6,168.5,45.7,161.4,43.3z"/>
	<path class="st0" d="M199.6,35.7c-4.7,0-8.5,2.1-10.5,5.6v-5h-11.8V40h3.6c1.5,0,1.8,0.5,1.8,2.4v36.4c0,2.2-0.5,2.5-1.8,2.5h-3.6
		V85H197v-3.5h-5.7c-1.5,0-1.9-0.6-1.9-2.5V66.8c1.9,2.5,5,3.9,8.9,3.9c9,0,14.9-7.2,14.9-18.3C213.1,42.1,207.9,35.7,199.6,35.7z
		 M197.4,66.2c-5.1,0-8.1-4.1-8.1-11V53c0-7.8,3.2-12.4,8.5-12.4c5,0,7.8,4.6,7.8,12.6C205.6,57,204.8,66.2,197.4,66.2z"/>
	<path class="st0" d="M233.4,35.7c-9.5,0-15.2,6.9-15.2,18.4c0,11,5.3,17.4,14.5,17.4c7.5,0,12.2-4.1,13.3-11.6l0.1-0.6h-3.7
		l-0.1,0.4c-1.2,6.8-6.2,7.5-8.4,7.5c-5.6,0-8.5-4.4-8.6-13.2h21.2l0-0.5c0.1-0.8,0.1-1.8,0.1-2.7C246.7,41,242,35.7,233.4,35.7z
		 M225.5,49.7c0.7-6.6,3.4-10.2,7.6-10.2c5.1,0,6.3,5.4,6.4,10.2H225.5z"/>
	<path class="st0" d="M263.3,42.9v-6.7h-11.9V40h3.5c1.5,0,1.9,0.5,1.9,2.5v22.1c0,1.9-0.4,2.5-1.9,2.5h-3.5v3.5h19.5v-3.5h-5.5
		c-1.5,0-1.9-0.5-1.9-2.5V53.5c0-7.4,3.3-11.1,9.9-11.1h2.1v-6.6h-2.4C268.8,35.9,265.3,38.5,263.3,42.9z"/>
	<path class="st0" d="M294.3,35.7c-4.3,0-8.4,1-12,3l-0.3,0.1v9.6h3.9l0.1-0.4c0.6-5.2,3.7-8.4,8-8.4c3.8,0,5.9,2.3,5.9,6.7v3.1
		l-8.8,1c-7.1,0.8-11.3,4.8-11.3,10.9c0,6,4.1,10.1,10,10.1c4.6,0,8.4-2.5,11-7l2.3,6.3h3.5V45.8C306.5,39.2,302.3,35.7,294.3,35.7z
		 M299.8,54.2c0,6.9-3.6,12.2-8.1,12.2c-2.9,0-4.8-2.3-4.8-5.7c0-3.9,2.2-6.1,6.6-6.6l6.3-0.7V54.2z"/>
	<path class="st0" d="M346.2,67.2c-1.7,0-2.9-1.3-3.8-2.5l-9.2-12l9-11.7c0.5-0.6,1.3-1.2,3.3-1.2h1.9v-3.5h-14.1v3.5h3.1
		c0.3,0,0.9,0.1,0.9,0.6c0,0.2-0.1,0.5-0.3,0.8l-6.4,8.2l-6.2-8.2c-0.2-0.2-0.3-0.5-0.3-0.7c0-0.3,0.4-0.7,1.1-0.7h2.6v-3.5h-16.4
		v3.5h2.1c1.6,0,2.2,0.6,3,1.6l9.5,12.4l-8.3,10.8c-1,1.2-2.2,2.6-4.5,2.6h-1.6v3.5h14.6v-3.5h-2.9c-0.6,0-1.4-0.1-1.4-0.8
		c0-0.2,0.1-0.7,0.5-1.2l6.1-8l6.2,8.2c0.3,0.3,0.4,0.7,0.4,1c0,0.6-0.7,0.7-1.3,0.7h-2.3v3.5h16.8v-3.5H346.2z"/>
</g>
</svg>
